<?xml version="1.0"?>
<svg xmlns="http://www.w3.org/2000/svg" viewBox="0 0 30 30" width="30px" height="30px">
    <path fill="currentColor" d="M 5 4 C 4.448 4 4 4.448 4 5 L 4 9 C 4 9.256 4.0979687 9.5120312 4.2929688 9.7070312 C 4.6829687 10.098031 5.3160312 10.098031 5.7070312 9.7070312 L 7 8.4140625 L 11.414062 12.828125 C 11.789924 13.203987 12 13.710844 12 14.242188 L 12 20 A 1.0001 1.0001 0 1 0 14 20 L 14 14.242188 C 14 13.181531 13.578263 12.164202 12.828125 11.414062 L 8.4140625 7 L 9.7070312 5.7070312 C 10.098031 5.3170313 10.098031 4.6839688 9.7070312 4.2929688 C 9.5120312 4.0979687 9.256 4 9 4 L 5 4 z M 21 4 C 20.744 4 20.487969 4.0979687 20.292969 4.2929688 C 19.901969 4.6839688 19.901969 5.3170313 20.292969 5.7070312 L 21.585938 7 L 17.171875 11.414062 C 16.421737 12.164202 16 13.18153 16 14.242188 L 16 20 A 1.0001 1.0001 0 1 0 18 20 L 18 14.242188 C 18 13.710843 18.210076 13.203987 18.585938 12.828125 L 23 8.4140625 L 24.292969 9.7070312 C 24.683969 10.098031 25.317031 10.098031 25.707031 9.7070312 C 25.902031 9.5120312 26 9.256 26 9 L 26 5 C 26 4.448 25.552 4 25 4 L 21 4 z M 4.984375 12.986328 A 1.0001 1.0001 0 0 0 4 14 L 4 24 C 4 25.093063 4.9069372 26 6 26 L 24 26 C 25.093063 26 26 25.093063 26 24 L 26 14 A 1.0001 1.0001 0 1 0 24 14 L 24 24 L 6 24 L 6 14 A 1.0001 1.0001 0 0 0 4.984375 12.986328 z"/>
</svg>
